<svg width="581" height="100" viewBox="0 0 581 100" fill="none" xmlns="http://www.w3.org/2000/svg">
<g filter="url(#filter0_d_0_1)">
<path d="M26.6753 13.0023C28.0412 13.0023 29.0052 14.341 28.5721 15.6364L25.9151 23.5837H32.6114C34.3267 23.5837 35.2462 25.6012 34.1209 26.8958L17.2259 46.3315C16.8763 46.7337 16.224 46.3829 16.3669 45.8695L20.0189 32.7406H14.7156C13.3677 32.7406 12.4058 31.4345 12.8057 30.1473L17.6951 14.4089C17.955 13.5724 18.729 13.0023 19.605 13.0023H26.6753Z" fill="#FEE024"/>
</g>
<line x1="7" y1="3.50227" x2="32" y2="3.50227" stroke="#444E79" stroke-width="7"/>
<line x1="7" y1="96.5023" x2="32" y2="96.5023" stroke="#444E79" stroke-width="7"/>
<line x1="3.5" y1="100" x2="3.5" stroke="#444E79" stroke-width="7"/>
<line x1="75" y1="3.50227" x2="100" y2="3.50227" stroke="#444E79" stroke-width="7"/>
<line x1="75" y1="96.5023" x2="100" y2="96.5023" stroke="#444E79" stroke-width="7"/>
<line x1="103.5" y1="100" x2="103.5" stroke="#444E79" stroke-width="7"/>
<g filter="url(#filter1_d_0_1)">
<circle cx="26" cy="80.0023" r="5" fill="#FEE024"/>
<circle cx="86" cy="20.0023" r="5" fill="#FEE024"/>
<circle cx="56" cy="50.0023" r="5" fill="#FEE024"/>
<path d="M26 80.0023C62 80.0023 52 20.0023 86 20.0023" stroke="#FEE024" stroke-width="5" stroke-linecap="round"/>
</g>
<path d="M144.068 73.0023H133.523L149.591 26.4568H162.273L178.318 73.0023H167.773L156.114 37.0932H155.75L144.068 73.0023ZM143.409 54.7068H168.318V62.3886H143.409V54.7068ZM206.125 58.1386V38.0932H215.807V73.0023H206.511V66.6614H206.148C205.36 68.7068 204.049 70.3508 202.216 71.5932C200.398 72.8356 198.178 73.4568 195.557 73.4568C193.223 73.4568 191.17 72.9265 189.398 71.8659C187.625 70.8053 186.239 69.2977 185.239 67.3432C184.254 65.3886 183.754 63.0477 183.739 60.3205V38.0932H193.42V58.5932C193.436 60.6538 193.989 62.2826 195.08 63.4795C196.17 64.6765 197.633 65.275 199.466 65.275C200.633 65.275 201.723 65.0098 202.739 64.4795C203.754 63.9341 204.572 63.1311 205.193 62.0705C205.83 61.0098 206.14 59.6992 206.125 58.1386ZM242.119 38.0932V45.3659H221.097V38.0932H242.119ZM225.869 29.7295H235.551V62.275C235.551 63.1689 235.688 63.8659 235.96 64.3659C236.233 64.8508 236.612 65.1917 237.097 65.3886C237.597 65.5856 238.172 65.6841 238.824 65.6841C239.278 65.6841 239.733 65.6462 240.188 65.5705C240.642 65.4795 240.991 65.4114 241.233 65.3659L242.756 72.5705C242.271 72.722 241.589 72.8962 240.71 73.0932C239.831 73.3053 238.763 73.4341 237.506 73.4795C235.172 73.5705 233.127 73.2598 231.369 72.5477C229.627 71.8356 228.271 70.7295 227.301 69.2295C226.331 67.7295 225.854 65.8356 225.869 63.5477V29.7295ZM263.824 73.6841C260.294 73.6841 257.241 72.9341 254.665 71.4341C252.104 69.9189 250.127 67.8129 248.733 65.1159C247.339 62.4038 246.642 59.2598 246.642 55.6841C246.642 52.078 247.339 48.9265 248.733 46.2295C250.127 43.5174 252.104 41.4114 254.665 39.9114C257.241 38.3962 260.294 37.6386 263.824 37.6386C267.354 37.6386 270.4 38.3962 272.96 39.9114C275.536 41.4114 277.521 43.5174 278.915 46.2295C280.309 48.9265 281.006 52.078 281.006 55.6841C281.006 59.2598 280.309 62.4038 278.915 65.1159C277.521 67.8129 275.536 69.9189 272.96 71.4341C270.4 72.9341 267.354 73.6841 263.824 73.6841ZM263.869 66.1841C265.475 66.1841 266.816 65.7295 267.892 64.8205C268.968 63.8962 269.778 62.6386 270.324 61.0477C270.884 59.4568 271.165 57.6462 271.165 55.6159C271.165 53.5856 270.884 51.775 270.324 50.1841C269.778 48.5932 268.968 47.3356 267.892 46.4114C266.816 45.4871 265.475 45.025 263.869 45.025C262.248 45.025 260.884 45.4871 259.778 46.4114C258.688 47.3356 257.862 48.5932 257.301 50.1841C256.756 51.775 256.483 53.5856 256.483 55.6159C256.483 57.6462 256.756 59.4568 257.301 61.0477C257.862 62.6386 258.688 63.8962 259.778 64.8205C260.884 65.7295 262.248 66.1841 263.869 66.1841ZM326.415 26.4568V73.0023H317.915L297.665 43.7068H297.324V73.0023H287.483V26.4568H296.119L316.21 55.7295H316.619V26.4568H326.415ZM350.273 73.6841C346.682 73.6841 343.591 72.9568 341 71.5023C338.424 70.0326 336.439 67.9568 335.045 65.275C333.652 62.578 332.955 59.3886 332.955 55.7068C332.955 52.1159 333.652 48.9644 335.045 46.2523C336.439 43.5402 338.402 41.4265 340.932 39.9114C343.477 38.3962 346.462 37.6386 349.886 37.6386C352.189 37.6386 354.333 38.0098 356.318 38.7523C358.318 39.4795 360.061 40.578 361.545 42.0477C363.045 43.5174 364.212 45.3659 365.045 47.5932C365.879 49.8053 366.295 52.3962 366.295 55.3659V58.025H336.818V52.025H357.182C357.182 50.6311 356.879 49.3962 356.273 48.3205C355.667 47.2447 354.826 46.4038 353.75 45.7977C352.689 45.1765 351.455 44.8659 350.045 44.8659C348.576 44.8659 347.273 45.2068 346.136 45.8886C345.015 46.5553 344.136 47.4568 343.5 48.5932C342.864 49.7144 342.538 50.9644 342.523 52.3432V58.0477C342.523 59.775 342.841 61.2674 343.477 62.525C344.129 63.7826 345.045 64.7523 346.227 65.4341C347.409 66.1159 348.811 66.4568 350.432 66.4568C351.508 66.4568 352.492 66.3053 353.386 66.0023C354.28 65.6992 355.045 65.2447 355.682 64.6386C356.318 64.0326 356.803 63.2902 357.136 62.4114L366.091 63.0023C365.636 65.1538 364.705 67.0326 363.295 68.6386C361.902 70.2295 360.098 71.472 357.886 72.3659C355.689 73.2447 353.152 73.6841 350.273 73.6841ZM395 58.1386V38.0932H404.682V73.0023H395.386V66.6614H395.023C394.235 68.7068 392.924 70.3508 391.091 71.5932C389.273 72.8356 387.053 73.4568 384.432 73.4568C382.098 73.4568 380.045 72.9265 378.273 71.8659C376.5 70.8053 375.114 69.2977 374.114 67.3432C373.129 65.3886 372.629 63.0477 372.614 60.3205V38.0932H382.295V58.5932C382.311 60.6538 382.864 62.2826 383.955 63.4795C385.045 64.6765 386.508 65.275 388.341 65.275C389.508 65.275 390.598 65.0098 391.614 64.4795C392.629 63.9341 393.447 63.1311 394.068 62.0705C394.705 61.0098 395.015 59.6992 395 58.1386ZM412.426 73.0023V38.0932H421.812V44.1841H422.176C422.813 42.0174 423.881 40.3811 425.381 39.275C426.881 38.1538 428.608 37.5932 430.562 37.5932C431.047 37.5932 431.57 37.6235 432.131 37.6841C432.691 37.7447 433.184 37.828 433.608 37.9341V46.525C433.153 46.3886 432.525 46.2674 431.722 46.1614C430.919 46.0553 430.184 46.0023 429.517 46.0023C428.093 46.0023 426.82 46.3129 425.699 46.9341C424.593 47.5402 423.714 48.3886 423.062 49.4795C422.426 50.5705 422.108 51.828 422.108 53.2523V73.0023H412.426ZM452.761 73.6841C449.231 73.6841 446.178 72.9341 443.602 71.4341C441.042 69.9189 439.064 67.8129 437.67 65.1159C436.277 62.4038 435.58 59.2598 435.58 55.6841C435.58 52.078 436.277 48.9265 437.67 46.2295C439.064 43.5174 441.042 41.4114 443.602 39.9114C446.178 38.3962 449.231 37.6386 452.761 37.6386C456.292 37.6386 459.337 38.3962 461.898 39.9114C464.473 41.4114 466.458 43.5174 467.852 46.2295C469.246 48.9265 469.943 52.078 469.943 55.6841C469.943 59.2598 469.246 62.4038 467.852 65.1159C466.458 67.8129 464.473 69.9189 461.898 71.4341C459.337 72.9341 456.292 73.6841 452.761 73.6841ZM452.807 66.1841C454.413 66.1841 455.754 65.7295 456.83 64.8205C457.905 63.8962 458.716 62.6386 459.261 61.0477C459.822 59.4568 460.102 57.6462 460.102 55.6159C460.102 53.5856 459.822 51.775 459.261 50.1841C458.716 48.5932 457.905 47.3356 456.83 46.4114C455.754 45.4871 454.413 45.025 452.807 45.025C451.186 45.025 449.822 45.4871 448.716 46.4114C447.625 47.3356 446.799 48.5932 446.239 50.1841C445.693 51.775 445.42 53.5856 445.42 55.6159C445.42 57.6462 445.693 59.4568 446.239 61.0477C446.799 62.6386 447.625 63.8962 448.716 64.8205C449.822 65.7295 451.186 66.1841 452.807 66.1841ZM515.352 26.4568V73.0023H506.852L486.602 43.7068H486.261V73.0023H476.42V26.4568H485.057L505.148 55.7295H505.557V26.4568H515.352ZM539.21 73.6841C535.619 73.6841 532.528 72.9568 529.938 71.5023C527.362 70.0326 525.377 67.9568 523.983 65.275C522.589 62.578 521.892 59.3886 521.892 55.7068C521.892 52.1159 522.589 48.9644 523.983 46.2523C525.377 43.5402 527.339 41.4265 529.869 39.9114C532.415 38.3962 535.4 37.6386 538.824 37.6386C541.127 37.6386 543.271 38.0098 545.256 38.7523C547.256 39.4795 548.998 40.578 550.483 42.0477C551.983 43.5174 553.15 45.3659 553.983 47.5932C554.816 49.8053 555.233 52.3962 555.233 55.3659V58.025H525.756V52.025H546.119C546.119 50.6311 545.816 49.3962 545.21 48.3205C544.604 47.2447 543.763 46.4038 542.688 45.7977C541.627 45.1765 540.392 44.8659 538.983 44.8659C537.513 44.8659 536.21 45.2068 535.074 45.8886C533.953 46.5553 533.074 47.4568 532.438 48.5932C531.801 49.7144 531.475 50.9644 531.46 52.3432V58.0477C531.46 59.775 531.778 61.2674 532.415 62.525C533.066 63.7826 533.983 64.7523 535.165 65.4341C536.347 66.1159 537.748 66.4568 539.369 66.4568C540.445 66.4568 541.43 66.3053 542.324 66.0023C543.218 65.6992 543.983 65.2447 544.619 64.6386C545.256 64.0326 545.741 63.2902 546.074 62.4114L555.028 63.0023C554.574 65.1538 553.642 67.0326 552.233 68.6386C550.839 70.2295 549.036 71.472 546.824 72.3659C544.627 73.2447 542.089 73.6841 539.21 73.6841ZM580.119 38.0932V45.3659H559.097V38.0932H580.119ZM563.869 29.7295H573.551V62.275C573.551 63.1689 573.688 63.8659 573.96 64.3659C574.233 64.8508 574.612 65.1917 575.097 65.3886C575.597 65.5856 576.172 65.6841 576.824 65.6841C577.278 65.6841 577.733 65.6462 578.188 65.5705C578.642 65.4795 578.991 65.4114 579.233 65.3659L580.756 72.5705C580.271 72.722 579.589 72.8962 578.71 73.0932C577.831 73.3053 576.763 73.4341 575.506 73.4795C573.172 73.5705 571.127 73.2598 569.369 72.5477C567.627 71.8356 566.271 70.7295 565.301 69.2295C564.331 67.7295 563.854 65.8356 563.869 63.5477V29.7295Z" fill="#444E79"/>
<defs>
<filter id="filter0_d_0_1" x="12.7142" y="13.0023" width="23.9011" height="35.5039" filterUnits="userSpaceOnUse" color-interpolation-filters="sRGB">
<feFlood flood-opacity="0" result="BackgroundImageFix"/>
<feColorMatrix in="SourceAlpha" type="matrix" values="0 0 0 0 0 0 0 0 0 0 0 0 0 0 0 0 0 0 127 0" result="hardAlpha"/>
<feOffset dx="2" dy="2"/>
<feComposite in2="hardAlpha" operator="out"/>
<feColorMatrix type="matrix" values="0 0 0 0 0.266667 0 0 0 0 0.305882 0 0 0 0 0.47451 0 0 0 1 0"/>
<feBlend mode="normal" in2="BackgroundImageFix" result="effect1_dropShadow_0_1"/>
<feBlend mode="normal" in="SourceGraphic" in2="effect1_dropShadow_0_1" result="shape"/>
</filter>
<filter id="filter1_d_0_1" x="21" y="15.0023" width="72" height="72" filterUnits="userSpaceOnUse" color-interpolation-filters="sRGB">
<feFlood flood-opacity="0" result="BackgroundImageFix"/>
<feColorMatrix in="SourceAlpha" type="matrix" values="0 0 0 0 0 0 0 0 0 0 0 0 0 0 0 0 0 0 127 0" result="hardAlpha"/>
<feOffset dx="2" dy="2"/>
<feComposite in2="hardAlpha" operator="out"/>
<feColorMatrix type="matrix" values="0 0 0 0 0.266667 0 0 0 0 0.305882 0 0 0 0 0.47451 0 0 0 1 0"/>
<feBlend mode="normal" in2="BackgroundImageFix" result="effect1_dropShadow_0_1"/>
<feBlend mode="normal" in="SourceGraphic" in2="effect1_dropShadow_0_1" result="shape"/>
</filter>
</defs>
</svg>
